{"extensionsUsed" : ["KHR_materials_pbrSpecularGlossiness"], "extensionsRequired" : ["KHR_materials_pbrSpecularGlossiness"], "accessors" : [{"bufferView" : 0, "byteOffset" : 0, "componentType" : 5123, "count" : 552, "type" : "SCALAR", "max" : [476], "min" : [0]}, {"bufferView" : 1, "byteOffset" : 0, "componentType" : 5126, "count" : 477, "type" : "VEC3", "max" : [0.015583928674459457, 0.015583928674459457, 0.04897155612707138], "min" : [-0.015583928674459457, -0.015583928674459457, -0.04897155612707138], "name" : "POSITION"}, {"bufferView" : 1, "byteOffset" : 12, "componentType" : 5126, "count" : 477, "type" : "VEC4", "max" : [1.0000044107437134, 1.0000044107437134, 0.35333818197250366, 0], "min" : [-0.6179317235946655, -0.8660006523132324, -0.3533346652984619, 0], "name" : "TANGENT"}, {"bufferView" : 1, "byteOffset" : 28, "componentType" : 5126, "count" : 477, "type" : "VEC3", "max" : [0.9999310970306396, 0.9999309778213501, 1.0000044107437134], "min" : [-0.9999309778213501, -0.9999309778213501, -1.0000044107437134], "name" : "NORMAL"}, {"bufferView" : 1, "byteOffset" : 40, "componentType" : 5126, "count" : 477, "type" : "VEC2", "max" : [0.9968980550765991, 1], "min" : [-0, 0.3812115788459778], "name" : "TEXCOORD_0"}, {"bufferView" : 0, "byteOffset" : 1104, "componentType" : 5123, "count" : 162, "type" : "SCALAR", "max" : [145], "min" : [0]}, {"bufferView" : 2, "byteOffset" : 0, "componentType" : 5126, "count" : 146, "type" : "VEC3", "max" : [0.04924817383289337, 0.049248188734054565, 0.027300089597702026], "min" : [-0.04924817383289337, -0.049248188734054565, -0.027300063520669937], "name" : "POSITION"}, {"bufferView" : 2, "byteOffset" : 12, "componentType" : 5126, "count" : 146, "type" : "VEC3", "max" : [0.8954104781150818, 0.895410418510437, 1.0000044107437134], "min" : [-0.8954100608825684, -0.8954102396965027, -1.0000044107437134], "name" : "NORMAL"}, {"bufferView" : 2, "byteOffset" : 24, "componentType" : 5126, "count" : 146, "type" : "VEC4", "max" : [1.0000044107437134, 0.9999275207519531, 0.7895306944847107, 0], "min" : [-0.7073976397514343, -0.1767820119857788, -0.8954102993011475, 0], "name" : "TANGENT"}, {"bufferView" : 2, "byteOffset" : 40, "componentType" : 5126, "count" : 146, "type" : "VEC2", "max" : [1, 1], "min" : [0.45429742336273193, 0.09602564573287964], "name" : "TEXCOORD_0"}, {"bufferView" : 0, "byteOffset" : 1428, "componentType" : 5123, "count" : 600, "type" : "SCALAR", "max" : [544], "min" : [0]}, {"bufferView" : 3, "byteOffset" : 0, "componentType" : 5126, "count" : 545, "type" : "VEC3", "max" : [0.04900148883461952, 0.04900148883461952, 0.0431349016726017], "min" : [-0.04900148883461952, -0.04900148883461952, -0.043134916573762894], "name" : "POSITION"}, {"bufferView" : 3, "byteOffset" : 12, "componentType" : 5126, "count" : 545, "type" : "VEC4", "max" : [1.0000044107437134, 1.0000044107437134, 0.9997709393501282, 0], "min" : [-0.0022568029817193747, -1.0000044107437134, -0.9997709393501282, 0], "name" : "TANGENT"}, {"bufferView" : 3, "byteOffset" : 28, "componentType" : 5126, "count" : 545, "type" : "VEC3", "max" : [0.9997696280479431, 0.9997696280479431, 1.0000044107437134], "min" : [-0.9997696280479431, -0.9997696280479431, -1.0000044107437134], "name" : "NORMAL"}, {"bufferView" : 3, "byteOffset" : 40, "componentType" : 5126, "count" : 545, "type" : "VEC2", "max" : [0.8907949328422546, 0.5120899677276611], "min" : [-0, 0.015135645866394043], "name" : "TEXCOORD_0"}], "asset" : {"generator" : "Aspose.3D 22.10", "version" : "2.0"}, "buffers" : [{"uri" : "data:application/octet-stream;base64,", "byteLength" : 65716}], "bufferViews" : [{"buffer" : 0, "byteOffset" : 0, "byteLength" : 2628, "target" : 34963}, {"buffer" : 0, "byteOffset" : 2632, "byteLength" : 26496, "byteStride" : 48, "target" : 34962}, {"buffer" : 0, "byteOffset" : 29132, "byteLength" : 7776, "byteStride" : 48, "target" : 34962}, {"buffer" : 0, "byteOffset" : 36912, "byteLength" : 28800, "byteStride" : 48, "target" : 34962}], "images" : [{"uri" : "data:image/png;base64,"}, {"uri" : "data:image/png;base64,"}, {"uri" : "data:image/png;base64,"}, {"uri" : "data:image/png;base64,"}, {"uri" : "data:image/png;base64,"}, {"uri" : "data:image/png;base64,"}, {"uri" : "data:image/png;base64,"}, {"uri" : "data:image/png;base64,"}, {"uri" : "data:image/png;base64,"}], "materials" : [{"name" : "", "extensions" : {"KHR_materials_pbrSpecularGlossiness" : {"diffuseFactor" : [1, 1, 1, 1], "diffuseTexture" : {"index" : 1, "texCoord" : 0}, "specularFactor" : [1, 1, 1], "glossinessFactor" : 1, "specularGlossinessTexture" : {"index" : 2, "texCoord" : 0, "scale" : 1}}}, "pbrMetallicRoughness" : {"baseColorFactor" : [1, 1, 1, 1], "metallicFactor" : 1, "roughnessFactor" : 1}, "normalTexture" : {"index" : 0, "texCoord" : 0, "scale" : 1}, "emissiveFactor" : [0, 0, 0], "alphaMode" : "OPAQUE", "doubleSided" : true}, {"name" : "", "extensions" : {"KHR_materials_pbrSpecularGlossiness" : {"diffuseFactor" : [1, 1, 1, 1], "diffuseTexture" : {"index" : 4, "texCoord" : 0}, "specularFactor" : [1, 1, 1], "glossinessFactor" : 1, "specularGlossinessTexture" : {"index" : 5, "texCoord" : 0, "scale" : 1}}}, "pbrMetallicRoughness" : {"baseColorFactor" : [1, 1, 1, 1], "metallicFactor" : 1, "roughnessFactor" : 1}, "normalTexture" : {"index" : 3, "texCoord" : 0, "scale" : 1}, "emissiveFactor" : [0, 0, 0], "alphaMode" : "OPAQUE", "doubleSided" : true}, {"name" : "", "extensions" : {"KHR_materials_pbrSpecularGlossiness" : {"diffuseFactor" : [1, 1, 1, 1], "diffuseTexture" : {"index" : 7, "texCoord" : 0}, "specularFactor" : [1, 1, 1], "glossinessFactor" : 1, "specularGlossinessTexture" : {"index" : 8, "texCoord" : 0, "scale" : 1}}}, "pbrMetallicRoughness" : {"baseColorFactor" : [1, 1, 1, 1], "metallicFactor" : 1, "roughnessFactor" : 1}, "normalTexture" : {"index" : 6, "texCoord" : 0, "scale" : 1}, "emissiveFactor" : [0, 0, 0], "alphaMode" : "OPAQUE", "doubleSided" : true}], "meshes" : [{"primitives" : [{"attributes" : {"POSITION" : 1, "TANGENT" : 2, "NORMAL" : 3, "TEXCOORD_0" : 4}, "indices" : 0, "material" : 0, "mode" : 4}]}, {"primitives" : [{"attributes" : {"POSITION" : 6, "NORMAL" : 7, "TANGENT" : 8, "TEXCOORD_0" : 9}, "indices" : 5, "material" : 1, "mode" : 4}]}, {"primitives" : [{"attributes" : {"POSITION" : 11, "TANGENT" : 12, "NORMAL" : 13, "TEXCOORD_0" : 14}, "indices" : 10, "material" : 2, "mode" : 4}]}], "nodes" : [{"matrix" : [3.802919864654541, 2.2177794096058816E-15, 4.068497234581755E-32, 0, -2.2177776020796E-15, 3.8029167652130127, 2.0037730396607632E-23, 0, -4.0684927501338876E-32, -2.0037730396607632E-23, 3.8029167652130127, 0, 5.029141902923584E-08, -1.5170095180039311E-09, 0.04753641039133072, 1], "mesh" : 0, "name" : "Standard.12"}, {"matrix" : [0.7774972915649414, 4.534193581840583E-16, 5.339755952577345E-33, 0, -4.534189063024878E-16, 0.7774965167045593, 4.096662872300052E-24, 0, -5.339748241847478E-33, -4.096662872300052E-24, 0.7774965167045593, 0, -1.4901161193847656E-08, 4.623854632512803E-09, -0.144891157746315, 1], "mesh" : 1, "name" : "Standard.13"}, {"matrix" : [2.3420584201812744, 1.3658370739410653E-15, -7.363023636785053E-33, 0, -1.3658359616171996E-15, 2.3420565128326416, 1.2340396434678012E-23, 0, 7.36302558660885E-33, -1.2340397690915753E-23, 2.3420567512512207, 0, 3.725290298461914E-08, 4.138414944065971E-09, -0.12967956066131592, 1], "mesh" : 2, "name" : "Standard.14"}, {"children" : [0, 1, 2], "matrix" : [1, 7.341775187796884E-09, 3.033877963972636E-32, 0, -7.341775187796884E-09, 1, 5.269042982977683E-24, 0, 8.345349396134471E-33, -5.269042982977683E-24, 1, 0, 0, 0, 0, 1], "name" : "Compound.11"}, {"children" : [3], "matrix" : [1, 0, 0, 0, 0, 1, 5.269042982977683E-24, 0, 0, -5.269042982977683E-24, 1, 0, 0, 0, 0, 1], "name" : "CreationRoot.10"}, {"children" : [4], "matrix" : [0.19999995827674866, 0, 0, 0, 0, -6.845707947704484E-09, 0.1999999812333631, 0, 0, 0.1999999812333631, 6.845707947704484E-09, 0, 0, 0, 0, 1], "name" : "Anchor.9"}, {"children" : [5], "name" : "RootNode.0"}], "samplers" : [{"magFilter" : 9729, "minFilter" : 9985, "wrapS" : 10497, "wrapT" : 10497}, {"magFilter" : 9729, "minFilter" : 9985, "wrapS" : 10497, "wrapT" : 10497}, {"magFilter" : 9729, "minFilter" : 9985, "wrapS" : 10497, "wrapT" : 10497}, {"magFilter" : 9729, "minFilter" : 9985, "wrapS" : 10497, "wrapT" : 10497}, {"magFilter" : 9729, "minFilter" : 9985, "wrapS" : 10497, "wrapT" : 10497}, {"magFilter" : 9729, "minFilter" : 9985, "wrapS" : 10497, "wrapT" : 10497}, {"magFilter" : 9729, "minFilter" : 9985, "wrapS" : 10497, "wrapT" : 10497}, {"magFilter" : 9729, "minFilter" : 9985, "wrapS" : 10497, "wrapT" : 10497}, {"magFilter" : 9729, "minFilter" : 9985, "wrapS" : 10497, "wrapT" : 10497}], "scene" : 0, "scenes" : [{"nodes" : [6]}], "textures" : [{"sampler" : 0, "source" : 0, "name" : ""}, {"sampler" : 1, "source" : 1, "name" : ""}, {"sampler" : 2, "source" : 2, "name" : ""}, {"sampler" : 3, "source" : 3, "name" : ""}, {"sampler" : 4, "source" : 4, "name" : ""}, {"sampler" : 5, "source" : 5, "name" : ""}, {"sampler" : 6, "source" : 6, "name" : ""}, {"sampler" : 7, "source" : 7, "name" : ""}, {"sampler" : 8, "source" : 8, "name" : ""}]}